<svg xmlns="http://www.w3.org/2000/svg" viewBox="0 0 64 64" width="64" height="64">
  <defs>
    <linearGradient id="g4" x1="0" y1="0" x2="1" y2="1">
      <stop offset="0%" stop-color="#D4C8AE"/>
      <stop offset="50%" stop-color="#C8B89A"/>
      <stop offset="100%" stop-color="#A89474"/>
    </linearGradient>
  </defs>
  <rect width="64" height="64" rx="14" fill="#0D0D0D"/>
  <!-- Cloud outline formed by M shape - the M IS the cloud -->
  <!-- Main cloud body using M's silhouette -->
  <path d="
    M10 44
    C10 44 10 42 10 40
    L10 32
    C10 22 16 14 24 14
    C28 14 30 18 32 22
    C34 18 36 14 40 14
    C48 14 54 22 54 32
    L54 40
    C54 42 54 44 54 44
    Z
  " fill="url(#g4)" opacity="0.15"/>
  <!-- M letterform inside the cloud -->
  <path d="
    M16 42
    L16 30
    C16 24 19 20 23 20
    C26 20 28 22 30 26
    L32 32
    L34 26
    C36 22 38 20 41 20
    C45 20 48 24 48 30
    L48 42
    L43 42
    L43 31
    C43 27 42 25 41 25
    C39 25 38 27 36 30
    L32 40
    L28 30
    C26 27 25 25 23 25
    C22 25 21 27 21 31
    L21 42
    Z
  " fill="url(#g4)"/>
  <!-- Cloud edge highlight -->
  <path d="
    M10 44
    L10 38
    C10 24 16 14 24 14
    C28 14 30 18 32 22
    C34 18 36 14 40 14
    C48 14 54 24 54 38
    L54 44
  " fill="none" stroke="url(#g4)" stroke-width="1" opacity="0.3"/>
  <!-- Flat base -->
  <rect x="10" y="42" width="44" height="4" rx="2" fill="url(#g4)" opacity="0.5"/>
</svg>
