<svg xmlns="http://www.w3.org/2000/svg" viewBox="0 0 64 64" width="64" height="64">
  <defs>
    <linearGradient id="g1" x1="0" y1="0" x2="1" y2="1">
      <stop offset="0%" stop-color="#C8B89A"/>
      <stop offset="100%" stop-color="#A89474"/>
    </linearGradient>
  </defs>
  <rect width="64" height="64" rx="14" fill="#0D0D0D"/>
  <!-- M shape where the two peaks become rounded cloud bumps -->
  <path d="
    M12 44
    L12 28
    Q12 18 20 18
    Q24 18 26 24
    L32 34
    L38 24
    Q40 18 44 18
    Q52 18 52 28
    L52 44
    L46 44
    L46 30
    Q46 24 44 24
    Q42 24 40 28
    L32 40
    L24 28
    Q22 24 20 24
    Q18 24 18 30
    L18 44
    Z
  " fill="url(#g1)" opacity="0.9"/>
  <!-- Cloud bumps on top of the M peaks -->
  <circle cx="20" cy="20" r="7" fill="url(#g1)"/>
  <circle cx="44" cy="20" r="7" fill="url(#g1)"/>
  <circle cx="32" cy="16" r="9" fill="url(#g1)"/>
  <!-- Flat cloud base connecting the bottom -->
  <rect x="12" y="40" width="40" height="6" rx="3" fill="url(#g1)"/>
</svg>
