<svg xmlns="http://www.w3.org/2000/svg" viewBox="0 0 280 64" width="280" height="64">
  <defs>
    <linearGradient id="goldGrad" x1="0" y1="0" x2="1" y2="1">
      <stop offset="0%" stop-color="#D4C8AE"/>
      <stop offset="100%" stop-color="#A89474"/>
    </linearGradient>
    <clipPath id="leftHalf"><rect x="0" y="0" width="32" height="64"/></clipPath>
    <clipPath id="rightHalf"><rect x="32" y="0" width="32" height="64"/></clipPath>
  </defs>

  <!-- Icon: rounded square with split M -->
  <rect width="64" height="64" rx="14" fill="#0D0D0D"/>
  <path d="M13 48 L13 22 C13 19.5 14 18 16 18 L18 18 C19.5 18 20.5 19 21.5 21 L32 40 L42.5 21 C43.5 19 44.5 18 46 18 L48 18 C50 18 51 19.5 51 22 L51 48 L45 48 L45 28 L34 46 C33.2 47.5 32.5 48 32 48 C31.5 48 30.8 47.5 30 46 L19 28 L19 48 Z" clip-path="url(#leftHalf)" fill="#F5F5F8"/>
  <path d="M13 48 L13 22 C13 19.5 14 18 16 18 L18 18 C19.5 18 20.5 19 21.5 21 L32 40 L42.5 21 C43.5 19 44.5 18 46 18 L48 18 C50 18 51 19.5 51 22 L51 48 L45 48 L45 28 L34 46 C33.2 47.5 32.5 48 32 48 C31.5 48 30.8 47.5 30 46 L19 28 L19 48 Z" clip-path="url(#rightHalf)" fill="url(#goldGrad)"/>

  <!-- Wordmark: melch.cloud — for light backgrounds -->
  <text x="80" y="39" font-family="system-ui, -apple-system, 'Segoe UI', Helvetica, Arial, sans-serif" font-size="26" font-weight="800" letter-spacing="-0.5" fill="#0A0A0A">melch</text>
  <text x="175.5" y="39" font-family="system-ui, -apple-system, 'Segoe UI', Helvetica, Arial, sans-serif" font-size="26" font-weight="800" letter-spacing="-0.5" fill="#A89474">.cloud</text>

  <!-- Tagline -->
  <text x="80" y="52" font-family="system-ui, -apple-system, 'Segoe UI', Helvetica, Arial, sans-serif" font-size="9" font-weight="600" letter-spacing="2" fill="rgba(10,10,10,0.35)" text-transform="uppercase">CREATIVE HUB</text>
</svg>
