<svg xmlns="http://www.w3.org/2000/svg" viewBox="0 0 280 48" width="280" height="48">
  <defs>
    <linearGradient id="goldGrad" x1="0" y1="0" x2="1" y2="1">
      <stop offset="0%" stop-color="#D4C8AE"/>
      <stop offset="100%" stop-color="#A89474"/>
    </linearGradient>
    <clipPath id="leftHalf"><rect x="0" y="0" width="24" height="48"/></clipPath>
    <clipPath id="rightHalf"><rect x="24" y="0" width="24" height="48"/></clipPath>
  </defs>

  <!-- Icon: rounded square with split M (48px) -->
  <rect width="48" height="48" rx="10" fill="#0D0D0D"/>
  <path d="M10 36 L10 16.5 C10 14.6 10.75 13.5 12 13.5 L13.5 13.5 C14.6 13.5 15.4 14.2 16.1 15.75 L24 30 L31.9 15.75 C32.6 14.2 33.4 13.5 34.5 13.5 L36 13.5 C37.25 13.5 38 14.6 38 16.5 L38 36 L33.5 36 L33.5 21 L25.5 34.5 C24.9 35.6 24.4 36 24 36 C23.6 36 23.1 35.6 22.5 34.5 L14.5 21 L14.5 36 Z" clip-path="url(#leftHalf)" fill="#F5F5F8"/>
  <path d="M10 36 L10 16.5 C10 14.6 10.75 13.5 12 13.5 L13.5 13.5 C14.6 13.5 15.4 14.2 16.1 15.75 L24 30 L31.9 15.75 C32.6 14.2 33.4 13.5 34.5 13.5 L36 13.5 C37.25 13.5 38 14.6 38 16.5 L38 36 L33.5 36 L33.5 21 L25.5 34.5 C24.9 35.6 24.4 36 24 36 C23.6 36 23.1 35.6 22.5 34.5 L14.5 21 L14.5 36 Z" clip-path="url(#rightHalf)" fill="url(#goldGrad)"/>

  <!-- Wordmark: melch.cloud — clean, no tagline, for dark bg -->
  <text x="60" y="32" font-family="system-ui, -apple-system, 'Segoe UI', Helvetica, Arial, sans-serif" font-size="24" font-weight="800" letter-spacing="-0.5" fill="#F5F5F8">melch</text>
  <text x="148" y="32" font-family="system-ui, -apple-system, 'Segoe UI', Helvetica, Arial, sans-serif" font-size="24" font-weight="800" letter-spacing="-0.5" fill="#C8B89A">.cloud</text>
</svg>
