<svg xmlns="http://www.w3.org/2000/svg" viewBox="0 0 64 64" width="64" height="64">
  <defs>
    <linearGradient id="goldGrad" x1="0" y1="0" x2="1" y2="1">
      <stop offset="0%" stop-color="#D4C8AE"/>
      <stop offset="100%" stop-color="#A89474"/>
    </linearGradient>
    <clipPath id="leftHalf"><rect x="0" y="0" width="32" height="64"/></clipPath>
    <clipPath id="rightHalf"><rect x="32" y="0" width="32" height="64"/></clipPath>
  </defs>
  <rect width="64" height="64" rx="14" fill="#0D0D0D"/>
  <!-- Soft Peak M — left half white -->
  <path d="M13 48 L13 22 C13 19.5 14 18 16 18 L18 18 C19.5 18 20.5 19 21.5 21 L32 40 L42.5 21 C43.5 19 44.5 18 46 18 L48 18 C50 18 51 19.5 51 22 L51 48 L45 48 L45 28 L34 46 C33.2 47.5 32.5 48 32 48 C31.5 48 30.8 47.5 30 46 L19 28 L19 48 Z" clip-path="url(#leftHalf)" fill="#F5F5F8"/>
  <!-- Soft Peak M — right half gold -->
  <path d="M13 48 L13 22 C13 19.5 14 18 16 18 L18 18 C19.5 18 20.5 19 21.5 21 L32 40 L42.5 21 C43.5 19 44.5 18 46 18 L48 18 C50 18 51 19.5 51 22 L51 48 L45 48 L45 28 L34 46 C33.2 47.5 32.5 48 32 48 C31.5 48 30.8 47.5 30 46 L19 28 L19 48 Z" clip-path="url(#rightHalf)" fill="url(#goldGrad)"/>
</svg>
